<svg width="17" height="17" viewBox="0 0 17 17" fill="none" xmlns="http://www.w3.org/2000/svg">
<g clip-path="url(#clip0_12_61)">
<path d="M0.108246 8.18547C0.108246 4.3769 0.108246 2.47261 1.29142 1.28944C2.4746 0.106262 4.37888 0.106262 8.18745 0.106262H8.86072C12.6693 0.106262 14.5736 0.106262 15.7568 1.28944C16.9399 2.47261 16.9399 4.3769 16.9399 8.18547V8.85874C16.9399 12.6673 16.9399 14.5716 15.7568 15.7548C14.5736 16.9379 12.6693 16.9379 8.86072 16.9379H8.18745C4.37888 16.9379 2.4746 16.9379 1.29142 15.7548C0.108246 14.5716 0.108246 12.6673 0.108246 8.85874V8.18547Z" fill="#0077FF"/>
<path d="M9.06411 12.2321C5.22789 12.2321 3.03979 9.60219 2.94861 5.22595H4.87023C4.93335 8.43799 6.34999 9.79855 7.47209 10.0791V5.22595H9.28156V7.99614C10.3896 7.87692 11.5537 6.61457 11.9464 5.22595H13.7559C13.4543 6.93718 12.1919 8.19954 11.2943 8.71851C12.1919 9.1393 13.6297 10.2404 14.1768 12.2321H12.1849C11.7571 10.8996 10.6912 9.86869 9.28156 9.72841V12.2321H9.06411Z" fill="white"/>
</g>
<defs>
<clipPath id="clip0_12_61">
<rect width="17" height="17" fill="white"/>
</clipPath>
</defs>
</svg>
